# xmcd
#
# Track frame offsets: 
#        150
#        22657
#        40458
#        61207
#        92540
#        115077
#        137203
#        160514
#        182079
#        205486
#
# Disc length: 3067 seconds
#
# Revision: 0
# Processed by: cddbd v1.5.2PL0 Copyright (c) Steve Scherf et al.
# Submitted via: ExactAudioCopy v1.0b3
#
DISCID=7c0bf90a
DTITLE=Phuong Dung - Tinh Anh Linh Chien
DYEAR=1900
DGENRE=
TTITLE0=Bong nho duong chieu
TTITLE1=Tram men ngan thuong
TTITLE2=Nhat nang
TTITLE3=Nua vanh trang doi
TTITLE4=Trang ve thon da
TTITLE5=Noi buon dem dong
TTITLE6=Chieu hoang vang
TTITLE7=Canh nhan hoi am
TTITLE8=Dung noi voi anh
TTITLE9=Tinh anh linh chien
EXTD=
EXTT0=
EXTT1=
EXTT2=
EXTT3=
EXTT4=
EXTT5=
EXTT6=
EXTT7=
EXTT8=
EXTT9=
PLAYORDER=
